<?xml version="1.0" encoding="utf-8"?>
<!-- Generator: Adobe Illustrator 17.0.0, SVG Export Plug-In . SVG Version: 6.00 Build 0)  -->
<!DOCTYPE svg PUBLIC "-//W3C//DTD SVG 1.1 Tiny//EN" "http://www.w3.org/Graphics/SVG/1.1/DTD/svg11-tiny.dtd">
<svg version="1.1" baseProfile="tiny" xmlns="http://www.w3.org/2000/svg" xmlns:xlink="http://www.w3.org/1999/xlink" x="0px"
	 y="0px" width="400px" height="400px" viewBox="0 0 400 400" overflow="scroll" xml:space="preserve">
<g id="Circle_outline" display="none">
	<circle display="inline" fill="none" stroke="#000000" stroke-miterlimit="10" cx="200" cy="201" r="195"/>
	<circle display="inline" fill="none" stroke="#000000" stroke-miterlimit="10" cx="200" cy="201" r="146"/>
</g>
<g id="Blue_Circle">
	<path fill="#34A59D" d="M200,6C92.304,6,5,93.304,5,201s87.304,195,195,195s195-87.305,195-195S307.696,6,200,6z M200,347
		c-80.634,0-146-65.366-146-146S119.366,55,200,55s146,65.366,146,146S280.634,347,200,347z"/>
</g>
<g id="Blue_Circle_copy_2" display="none">
	<path display="inline" fill="#FEE79B" d="M200,6C92.304,6,5,93.304,5,201s87.304,195,195,195s195-87.305,195-195S307.696,6,200,6z
		 M200,347c-80.634,0-146-65.366-146-146S119.366,55,200,55s146,65.366,146,146S280.634,347,200,347z"/>
</g>
<g id="Blue_Circle_copy">
</g>
<g id="Layer_4">
	<path fill="#3C4241" d="M60.485,337.218l36.04-33.223C70.245,277.593,54,241.195,54,201c0-80.634,65.366-146,146-146
		c4.214,0,8.383,0.189,12.506,0.539V6.41C208.369,6.148,204.202,6,200,6C92.304,6,5,93.304,5,201
		C5,254.009,26.162,302.068,60.485,337.218z"/>
</g>
<g id="Layer_6" display="none">
	<rect display="inline" fill="none" width="200" height="400"/>
</g>
</svg>
