<?xml version="1.0" encoding="utf-8"?>
<!-- Generator: Adobe Illustrator 17.0.0, SVG Export Plug-In . SVG Version: 6.00 Build 0)  -->
<!DOCTYPE svg PUBLIC "-//W3C//DTD SVG 1.1 Tiny//EN" "http://www.w3.org/Graphics/SVG/1.1/DTD/svg11-tiny.dtd">
<svg version="1.1" baseProfile="tiny" xmlns="http://www.w3.org/2000/svg" xmlns:xlink="http://www.w3.org/1999/xlink" x="0px"
	 y="0px" width="400px" height="400px" viewBox="0 0 400 400" overflow="scroll" xml:space="preserve">
<g id="Circle_outline" display="none">
	<circle display="inline" fill="none" stroke="#000000" stroke-miterlimit="10" cx="200" cy="201" r="195"/>
	<circle display="inline" fill="none" stroke="#000000" stroke-miterlimit="10" cx="200" cy="201" r="146"/>
</g>
<g id="Blue_Circle">
	<path fill="#34A59D" d="M200,6C92.304,6,5,93.304,5,201s87.304,195,195,195s195-87.305,195-195S307.696,6,200,6z M200,347
		c-80.634,0-146-65.366-146-146S119.366,55,200,55s146,65.366,146,146S280.634,347,200,347z"/>
</g>
<g id="Blue_Circle_copy_2">
	<path fill="#FEE79B" d="M200,6C92.304,6,5,93.304,5,201s87.304,195,195,195s195-87.305,195-195S307.696,6,200,6z M200,347
		c-80.634,0-146-65.366-146-146S119.366,55,200,55s146,65.366,146,146S280.634,347,200,347z"/>
</g>
<g id="Blue_Circle_copy">
</g>
<g id="Layer_4">
	<path fill="#3C4241" d="M62.025,153.169C81.831,96.029,136.12,55,200,55c0.334,0,0.666,0.01,1,0.013v-49
		C200.666,6.011,200.334,6,200,6C114.344,6,41.591,61.23,15.4,138.02L62.025,153.169z"/>
</g>
</svg>
